<svg xmlns="http://www.w3.org/2000/svg" width="512" height="512" viewBox="0 0 512 512">
    <defs>
        <pattern id="paisley" x="0" y="0" width="256" height="256" patternUnits="userSpaceOnUse">
            <path d="M128 0C92.7 0 64 28.7 64 64c0 35.3 28.7 64 64 64s64-28.7 64-64c0-35.3-28.7-64-64-64zm0 96c-17.7 0-32-14.3-32-32s14.3-32 32-32 32 14.3 32 32-14.3 32-32 32z" fill="black"/>
            <path d="M192 192c-35.3 0-64 28.7-64 64s28.7 64 64 64 64-28.7 64-64-28.7-64-64-64zm0 96c-17.7 0-32-14.3-32-32s14.3-32 32-32 32 14.3 32 32-14.3 32-32 32z" fill="black"/>
            <circle cx="64" cy="192" r="32" fill="black"/>
            <circle cx="192" cy="64" r="16" fill="black"/>
        </pattern>
    </defs>
    <rect width="512" height="512" fill="url(#paisley)" />
</svg>