<?xml version="1.0" encoding="utf-8" ?>
<svg baseProfile="full" height="512" version="1.1" width="512" xmlns="http://www.w3.org/2000/svg" xmlns:ev="http://www.w3.org/2001/xml-events" xmlns:xlink="http://www.w3.org/1999/xlink"><defs /><path d="M214,364 C123,213 273,394 308,142 C350,123 423,135 216,63 C91,66 81,415 352,208 " fill="rgb(221, 207, 107)" fill-opacity="0.7" stroke="black" stroke-width="1" /><path d="M229,403 C114,218 423,375 405,264 C315,332 63,125 75,453 C321,239 454,215 457,378 " fill="rgb(219, 204, 180)" fill-opacity="0.7" stroke="black" stroke-width="1" /><path d="M400,227 C121,376 148,322 181,77 C247,402 68,335 249,99 C98,187 364,225 132,66 " fill="rgb(224, 111, 175)" fill-opacity="0.7" stroke="black" stroke-width="1" /><path d="M283,261 C462,128 158,175 64,90 C458,204 75,267 364,61 C89,358 301,150 289,277 " fill="rgb(151, 232, 182)" fill-opacity="0.7" stroke="black" stroke-width="1" /><path d="M113,266 C318,156 92,334 242,240 C251,84 53,57 319,323 C117,403 172,286 437,125 " fill="rgb(126, 162, 143)" fill-opacity="0.7" stroke="black" stroke-width="1" /><path d="M128,238 C406,105 438,445 205,459 C293,319 407,346 268,272 C146,418 182,346 204,168 " fill="rgb(156, 212, 233)" fill-opacity="0.7" stroke="black" stroke-width="1" /><path d="M117,311 C232,344 267,287 423,197 C120,192 328,216 151,338 C245,60 296,342 246,184 " fill="rgb(107, 123, 189)" fill-opacity="0.7" stroke="black" stroke-width="1" /><path d="M350,410 C375,269 318,404 354,231 C282,50 157,265 228,449 C50,255 83,207 333,195 " fill="rgb(111, 173, 227)" fill-opacity="0.7" stroke="black" stroke-width="1" /><path d="M118,279 C405,86 225,64 271,81 C195,58 79,251 107,440 C264,296 383,285 58,371 " fill="rgb(235, 185, 248)" fill-opacity="0.7" stroke="black" stroke-width="1" /><path d="M318,357 C204,267 396,424 342,195 C66,277 254,188 453,203 C409,217 109,399 132,333 " fill="rgb(208, 102, 213)" fill-opacity="0.7" stroke="black" stroke-width="1" /></svg>